<?xml version="1.0" encoding="UTF-8" standalone="no"?>
<!-- Created with Inkscape (http://www.inkscape.org/) -->

<svg
   width="210mm"
   height="297mm"
   viewBox="0 0 210 297"
   version="1.1"
   id="svg9347"
   inkscape:version="1.1.2 (1:1.1+202202050950+0a00cf5339)"
   sodipodi:docname="ButtonHome.svg"
   xmlns:inkscape="http://www.inkscape.org/namespaces/inkscape"
   xmlns:sodipodi="http://sodipodi.sourceforge.net/DTD/sodipodi-0.dtd"
   xmlns="http://www.w3.org/2000/svg"
   xmlns:svg="http://www.w3.org/2000/svg">
  <sodipodi:namedview
     id="namedview9349"
     pagecolor="#ffffff"
     bordercolor="#666666"
     borderopacity="1.0"
     inkscape:pageshadow="2"
     inkscape:pageopacity="0.0"
     inkscape:pagecheckerboard="0"
     inkscape:document-units="mm"
     showgrid="false"
     inkscape:zoom="4.5304435"
     inkscape:cx="59.48645"
     inkscape:cy="63.901029"
     inkscape:window-width="1974"
     inkscape:window-height="1088"
     inkscape:window-x="74"
     inkscape:window-y="27"
     inkscape:window-maximized="1"
     inkscape:current-layer="layer1" />
  <defs
     id="defs9344" />
  <g
     inkscape:label="Layer 1"
     inkscape:groupmode="layer"
     id="layer1">
    <g
       id="g471356"
       transform="matrix(0.65384667,0,0,0.65384667,-200.37305,-35.013907)">
      <path
         style="fill:#000000;stroke-width:0.0264682"
         d="m 308.96902,66.888845 c -0.2686,-0.07089 -0.43402,-0.16758 -0.64994,-0.379875 -0.20397,-0.20054 -0.34761,-0.456779 -0.40121,-0.715712 -0.0195,-0.09405 -0.0288,-0.816006 -0.0288,-2.235027 v -2.096093 h -0.17802 c -0.62785,0 -1.13961,-0.429177 -1.24265,-1.042147 -0.0408,-0.242768 -0.002,-0.500338 0.11331,-0.740641 0.0751,-0.157413 0.30159,-0.390657 2.9687,-3.057774 3.36536,-3.365353 3.01046,-3.063975 3.60817,-3.063975 0.59813,0 0.24304,-0.301511 3.60852,3.063975 3.36542,3.365426 3.06398,3.010417 3.06398,3.60834 0,0.351326 -10e-4,0.356949 -0.0899,0.53801 -0.21045,0.428231 -0.64486,0.694212 -1.13384,0.694212 h -0.17715 l -0.007,2.169481 -0.007,2.169487 -0.0701,0.180355 c -0.18584,0.478306 -0.56865,0.813218 -1.05181,0.920205 -0.16091,0.03563 -0.36691,0.04072 -1.38653,0.03433 -1.16254,-0.0073 -1.19967,-0.0092 -1.26993,-0.06159 -0.0398,-0.02975 -0.0967,-0.08662 -0.12642,-0.126424 -0.053,-0.07098 -0.0543,-0.106197 -0.0672,-1.822581 l -0.0132,-1.750203 -0.0796,-0.128993 c -0.0895,-0.145024 -0.28963,-0.282079 -0.45083,-0.308724 -0.12851,-0.02122 -1.35372,-0.02122 -1.48223,0 -0.1612,0.02668 -0.36135,0.1637 -0.45083,0.308724 l -0.0796,0.128993 -0.0132,1.750203 c -0.0129,1.716384 -0.0141,1.751606 -0.0672,1.822581 -0.0297,0.03979 -0.0866,0.0967 -0.12643,0.126424 -0.0704,0.0526 -0.10545,0.05421 -1.29614,0.05955 -1.13546,0.0052 -1.23759,0.0021 -1.4154,-0.04509 z"
         id="path471316" />
      <path
         style="fill:#ffffff;stroke-width:0.0264682"
         d="m 311.04197,64.756037 c 0,-0.971666 0.01,-1.529149 0.029,-1.621178 0.10279,-0.496568 0.50412,-0.925995 1.01645,-1.087604 0.17525,-0.05528 0.23184,-0.05844 1.04549,-0.05844 0.75985,0 0.87876,0.0057 1.01903,0.04868 0.51823,0.158812 0.90251,0.554327 1.03179,1.061942 0.0336,0.131849 0.0401,0.402412 0.0401,1.647647 v 1.489891 l 0.94624,-0.0016 c 1.01765,-0.0016 1.05815,-0.0059 1.23685,-0.142209 0.0506,-0.03859 0.12502,-0.126341 0.16538,-0.194991 l 0.0734,-0.124832 0.0133,-2.400064 c 0.0131,-2.372372 0.0139,-2.400911 0.0678,-2.473139 0.12746,-0.170686 0.16151,-0.181047 0.64206,-0.195459 0.51127,-0.01534 0.59277,-0.04452 0.69106,-0.247564 0.0688,-0.142058 0.0695,-0.261351 0.002,-0.399166 -0.075,-0.154156 -5.6146,-5.688358 -5.74995,-5.744339 -0.13243,-0.05478 -0.24703,-0.05123 -0.37629,0.01163 -0.15415,0.07499 -5.68836,5.614597 -5.74434,5.749956 -0.0553,0.133753 -0.0511,0.247127 0.0141,0.381904 0.0983,0.203037 0.17979,0.232236 0.69107,0.247564 0.48055,0.01441 0.5146,0.02481 0.64206,0.195458 0.0539,0.07223 0.0547,0.100762 0.0678,2.47314 l 0.0133,2.400063 0.0734,0.124828 c 0.0403,0.06866 0.11478,0.156403 0.16538,0.194995 0.17869,0.136306 0.2192,0.140961 1.23685,0.14221 l 0.94624,0.0016 z"
         id="path17597-1" />
    </g>
  </g>
</svg>
