<?xml version="1.0" encoding="UTF-8" standalone="no"?>
<!-- Created with Inkscape (http://www.inkscape.org/) -->

<svg
   width="8.9710569mm"
   height="8.9828901mm"
   viewBox="0 0 8.9710569 8.9828901"
   version="1.1"
   id="svg9347"
   inkscape:version="1.2.1 (9c6d41e, 2022-07-14)"
   sodipodi:docname="ButtonLogin.svg"
   xmlns:inkscape="http://www.inkscape.org/namespaces/inkscape"
   xmlns:sodipodi="http://sodipodi.sourceforge.net/DTD/sodipodi-0.dtd"
   xmlns="http://www.w3.org/2000/svg"
   xmlns:svg="http://www.w3.org/2000/svg">
  <sodipodi:namedview
     id="namedview9349"
     pagecolor="#ffffff"
     bordercolor="#666666"
     borderopacity="1.0"
     inkscape:pageshadow="2"
     inkscape:pageopacity="0.0"
     inkscape:pagecheckerboard="0"
     inkscape:document-units="mm"
     showgrid="false"
     inkscape:zoom="4.5304435"
     inkscape:cx="54.961507"
     inkscape:cy="19.424147"
     inkscape:window-width="1512"
     inkscape:window-height="846"
     inkscape:window-x="0"
     inkscape:window-y="38"
     inkscape:window-maximized="0"
     inkscape:current-layer="layer1"
     inkscape:showpageshadow="2"
     inkscape:deskcolor="#d1d1d1" />
  <defs
     id="defs9344" />
  <g
     inkscape:label="Layer 1"
     inkscape:groupmode="layer"
     id="layer1">
    <g
       id="g473519"
       transform="matrix(1.2848628,0,0,1.2848628,-339.7106,-73.353824)">
      <path
         style="fill:#000000;stroke:#000000;stroke-width:0.0291124;stroke-opacity:1"
         d="m 267.53612,64.059108 c -0.04,-0.006 -0.16449,-0.0273 -0.27657,-0.0454 -0.65894,-0.10632 -1.32551,-0.45809 -1.83666,-0.96924 -0.4944,-0.4944 -0.80114,-1.05789 -0.96276,-1.76861 -0.0674,-0.2966 -0.0674,-1.09134 0,-1.38794 0.16162,-0.71073 0.46836,-1.27422 0.96276,-1.76862 0.49439,-0.49438 1.05788,-0.80113 1.76861,-0.96276 0.29659,-0.0675 1.09134,-0.0675 1.38794,0 0.71072,0.16163 1.27421,0.46838 1.76861,0.96276 0.49439,0.4944 0.80113,1.05789 0.96276,1.76862 0.0675,0.2966 0.0675,1.09134 0,1.38794 -0.16163,0.71072 -0.46837,1.27421 -0.96276,1.76861 -0.49624,0.49624 -1.07802,0.81201 -1.76861,0.95994 -0.20615,0.0442 -0.89414,0.0802 -1.04332,0.0546 z"
         id="path473477" />
      <path
         style="fill:#ffffff;stroke:#000000;stroke-width:0.0291124;stroke-opacity:1"
         d="m 268.38518,63.683288 c 1.02143,-0.17813 1.85866,-0.79871 2.31843,-1.71852 0.76928,-1.53902 0.12691,-3.4191 -1.43531,-4.20085 -1.53809,-0.76968 -3.41909,-0.12706 -4.20084,1.43517 -0.76959,1.53791 -0.12698,3.41902 1.43517,4.20118 0.56969,0.28525 1.26788,0.3902 1.88255,0.28302 z"
         id="path2671-2-1-3" />
      <circle
         style="opacity:1;fill:#ff0000;fill-opacity:0.99475;stroke:#000000;stroke-width:0.353345;stroke-linecap:round;stroke-linejoin:round;stroke-miterlimit:4;stroke-dasharray:none;stroke-dashoffset:0;stroke-opacity:1;stop-color:#000000;stop-opacity:1"
         id="path471538"
         cx="267.8855"
         cy="59.973568"
         r="0.99327397" />
      <path
         style="font-variation-settings:normal;opacity:1;fill:#ff0000;fill-opacity:1;stroke:#000000;stroke-width:0.350232;stroke-linecap:butt;stroke-linejoin:miter;stroke-miterlimit:4;stroke-dasharray:none;stroke-dashoffset:0;stroke-opacity:1;stop-color:#000000;stop-opacity:1"
         d="m 265.78209,63.093032 c 0,0 0.19506,-1.057911 0.70991,-1.489711 0.58728,-0.49253 0.87712,-0.03841 1.38728,-0.03841 0.51014,0 0.89675,-0.384441 1.48402,0.108069 0.51485,0.4318 0.64551,1.447436 0.64551,1.447436 -1.41759,0.906357 -2.86122,1.076481 -4.22672,-0.02738 z"
         id="path471760"
         sodipodi:nodetypes="cszsccc" />
    </g>
  </g>
</svg>
