<?xml version="1.0" encoding="UTF-8" standalone="no"?>
<!-- Created with Inkscape (http://www.inkscape.org/) -->

<svg
   width="210mm"
   height="297mm"
   viewBox="0 0 210 297"
   version="1.1"
   id="svg9347"
   inkscape:version="1.1.2 (1:1.1+202202050950+0a00cf5339)"
   sodipodi:docname="ButtonArrowRight.svg"
   xmlns:inkscape="http://www.inkscape.org/namespaces/inkscape"
   xmlns:sodipodi="http://sodipodi.sourceforge.net/DTD/sodipodi-0.dtd"
   xmlns="http://www.w3.org/2000/svg"
   xmlns:svg="http://www.w3.org/2000/svg">
  <sodipodi:namedview
     id="namedview9349"
     pagecolor="#ffffff"
     bordercolor="#666666"
     borderopacity="1.0"
     inkscape:pageshadow="2"
     inkscape:pageopacity="0.0"
     inkscape:pagecheckerboard="0"
     inkscape:document-units="mm"
     showgrid="false"
     inkscape:zoom="0.80087682"
     inkscape:cx="396.44049"
     inkscape:cy="561.25984"
     inkscape:window-width="1974"
     inkscape:window-height="1088"
     inkscape:window-x="74"
     inkscape:window-y="27"
     inkscape:window-maximized="1"
     inkscape:current-layer="layer1" />
  <defs
     id="defs9344" />
  <g
     inkscape:label="Layer 1"
     inkscape:groupmode="layer"
     id="layer1">
    <path
       style="color:#000000;fill:#000000;stroke-linecap:round;stroke-linejoin:round;-inkscape-stroke:none"
       d="M 3.5,0 C 1.56909,0 0,1.56909 0,3.5 0,5.43091 1.56909,7 3.5,7 5.43091,7 7,5.43091 7,3.5 7,1.56909 5.43091,0 3.5,0 Z m 0,0.35351 c 1.74058,0 3.14649,1.40591 3.14648,3.14649 0,1.74058 -1.4059,3.14844 -3.14648,3.14844 C 1.75942,6.64844 0.35156,5.24058 0.35156,3.5 0.35156,1.75942 1.75942,0.35351 3.5,0.35351 Z"
       id="path9628-3-6" />
    <path
       id="path1540-7-7"
       style="fill:#000000;stroke:none;stroke-width:0.0219313"
       d="M 5.2373,3.56979 C 5.2126,3.62269 3.96005,4.86461 3.8656,4.9299 3.8123,4.9667 3.7946,4.9688 3.74134,4.9443 3.70714,4.9286 3.67464,4.8937 3.66894,4.8667 3.66294,4.8397 3.65634,4.66685 3.65364,4.48256 L 3.64864,4.1475 2.72589,4.136 C 1.84292,4.1249 1.80186,4.1225 1.77361,4.0796 1.73041,4.014 1.73041,2.9871 1.77361,2.9215 1.80181,2.8786 1.84291,2.8761 2.72589,2.8651 l 0.92275,-0.0115 0.005,-0.33506 c 0.003,-0.18428 0.01,-0.35714 0.0153,-0.38413 0.006,-0.027 0.0383,-0.0619 0.0724,-0.0777 0.0532,-0.0245 0.071,-0.0224 0.12426,0.0145 0.10517,0.0727 1.34849,1.31052 1.37303,1.36696 0.0272,0.0625 0.0271,0.071 -10e-4,0.1318 z M 4.35625,2.96819 3.93995,2.55853 3.93395,2.82059 c -0.005,0.20239 -0.0136,0.27149 -0.0396,0.30344 -0.0314,0.0386 -0.0958,0.0413 -0.94636,0.0413 H 2.03536 V 3.5004 3.83546 H 2.948 c 0.85058,0 0.91492,0.003 0.94636,0.0414 0.026,0.032 0.0351,0.10102 0.0397,0.30296 L 3.94006,4.44141 4.41498,3.97289 4.8899,3.50437 4.8313,3.44107 C 4.7991,3.40617 4.58534,3.19344 4.35638,2.96812 Z" />
  </g>
</svg>
