<?xml version="1.0" encoding="UTF-8" standalone="no"?>
<!-- Created with Inkscape (http://www.inkscape.org/) -->

<svg
   width="210mm"
   height="297mm"
   viewBox="0 0 210 297"
   version="1.1"
   id="svg9347"
   inkscape:version="1.1.2 (1:1.1+202202050950+0a00cf5339)"
   sodipodi:docname="ButtonCommunication.svg"
   xmlns:inkscape="http://www.inkscape.org/namespaces/inkscape"
   xmlns:sodipodi="http://sodipodi.sourceforge.net/DTD/sodipodi-0.dtd"
   xmlns="http://www.w3.org/2000/svg"
   xmlns:svg="http://www.w3.org/2000/svg">
  <sodipodi:namedview
     id="namedview9349"
     pagecolor="#ffffff"
     bordercolor="#666666"
     borderopacity="1.0"
     inkscape:pageshadow="2"
     inkscape:pageopacity="0.0"
     inkscape:pagecheckerboard="0"
     inkscape:document-units="mm"
     showgrid="false"
     inkscape:zoom="4.5304435"
     inkscape:cx="59.48645"
     inkscape:cy="63.901029"
     inkscape:window-width="1974"
     inkscape:window-height="1088"
     inkscape:window-x="74"
     inkscape:window-y="27"
     inkscape:window-maximized="1"
     inkscape:current-layer="layer1" />
  <defs
     id="defs9344" />
  <g
     inkscape:label="Layer 1"
     inkscape:groupmode="layer"
     id="layer1">
    <path
       style="fill:#000000;stroke:none;stroke-width:0.0219313"
       d="m 0.02155487,3.55554 c 0.0247,-0.0529 1.27724003,-1.29483 1.37171003,-1.36011 0.0533,-0.0368 0.071,-0.0389 0.12425,-0.0144 0.0341,0.0157 0.0667,0.0506 0.0724,0.0776 0.006,0.027 0.0126,0.19985 0.0153,0.38413 l 0.005,0.33507 0.92275,0.0115 c 0.88298,0.011 0.92403,0.0135 0.95229,0.0564 0.0432,0.0656 0.0432,1.09251 0,1.15811 -0.0282,0.0429 -0.0693,0.0454 -0.95229,0.0564 l -0.92275,0.0115 -0.005,0.33506 c -0.003,0.18429 -0.01,0.35715 -0.0153,0.38414 -0.006,0.027 -0.0382,0.0619 -0.0724,0.0776 -0.0533,0.0245 -0.0709,0.0224 -0.12425,-0.0144 -0.10518,-0.0727 -1.34851003,-1.31053 -1.37304003,-1.36698 -0.0271,-0.0625 -0.0271,-0.071 8.1e-4,-0.13178 z"
       id="path1540-5-1-4" />
    <path
       style="fill:#000000;stroke:none;stroke-width:0.0219313"
       d="m 5.3287049,2.24822 c -0.0247,0.0529 -1.27726,1.29482 -1.3717,1.36011 -0.0533,0.0368 -0.071,0.0389 -0.12428,0.0144 -0.0341,-0.0157 -0.0667,-0.0506 -0.0724,-0.0777 -0.006,-0.027 -0.0126,-0.19985 -0.0153,-0.38413 l -0.005,-0.33507 -0.92275,-0.0115 c -0.88297,-0.0111 -0.92403,-0.0135 -0.95229,-0.0564 -0.0432,-0.0656 -0.0432,-1.0925 0,-1.1581 0.0282,-0.0429 0.0693,-0.0454 0.95229,-0.0564 l 0.92275,-0.0115 0.005,-0.33506 c 0.003,-0.18429 0.01,-0.35715 0.0153,-0.38414 0.006,-0.0269 0.0383,-0.0619 0.0724,-0.0776 0.0533,-0.0245 0.071,-0.0224 0.12428,0.0144 0.10515,0.0727 1.34848,1.31053 1.37303,1.36698 0.0271,0.0625 0.0271,0.071 -0.002,0.13178 z"
       id="path1540-6-2" />
    <path
       style="fill:#ffffff;stroke:none;stroke-width:0.0219313"
       d="m 4.4476449,1.64662 -0.41629,-0.40964 -0.006,0.26205 c -0.005,0.20238 -0.0136,0.27149 -0.0396,0.30343 -0.0315,0.0386 -0.0958,0.0414 -0.94637,0.0414 h -0.91262 v 0.33506 0.33506 h 0.91263 c 0.85058,0 0.91493,0.003 0.94636,0.0414 0.026,0.032 0.0351,0.10103 0.0396,0.30296 l 0.006,0.2616 0.47492,-0.46852 0.47492,-0.46852 -0.0586,-0.0633 c -0.0322,-0.0349 -0.24595,-0.24764 -0.47491,-0.47294 z"
       id="path441515" />
    <path
       style="fill:#ffffff;stroke:none;stroke-width:0.0219313"
       d="m 0.90259487,4.15714 0.41631003,0.40965 0.006,-0.26207 c 0.005,-0.20237 0.0136,-0.27148 0.0396,-0.30342 0.0315,-0.0386 0.0958,-0.0414 0.94635,-0.0414 h 0.91264 V 3.62483 3.28977 h -0.91264 c -0.85058,0 -0.91492,-0.003 -0.94635,-0.0414 -0.0261,-0.032 -0.0351,-0.10102 -0.0396,-0.30296 l -0.006,-0.26159 -0.47493003,0.46851 -0.47492,0.46852 0.0586,0.0633 c 0.0322,0.0349 0.24596,0.24763 0.47493,0.47294 z"
       id="path441635" />
    <path
       style="fill:#000000;stroke:none;stroke-width:0.00518317"
       d="m 2.4790449,4.60101 c 0.0822,-0.0127 2.35094,-0.005 2.35094,-0.005 1.43782,-0.003 1.59938,-6e-4 1.60829,-0.009 l 0.01,-0.009 -7e-5,-2.09433 c 8.1e-4,-0.53552 0.002,-2.09011 -0.0205,-2.12597 -0.0226,-0.0358 -1.77505,-0.0259 -2.35758,-0.0264 -0.58253,-4.9e-4 -2.33122,-0.0108 -2.37225,0.006 -0.0483,0.0117 -0.0358,0.055 -0.0445,0.0874 l -0.005,1.02859 c 0,0 -0.13029,0.0889 -0.3443,-0.006 0,-0.57539 8e-4,-0.94168 0.005,-0.97547 0.014,-0.15094 0.0777,-0.29047 0.17295,-0.37923 0.0412,-0.0383 0.0803,-0.0622 0.12973,-0.0792 L 1.6506549,0 h 2.41541 2.41542 l 0.0434,0.0163 c 0.16006,0.0602 0.2438,0.23954 0.26217,0.45608 0.003,0.0395 0.004,0.65433 0.003,2.04344 -0.002,1.86924 -0.002,1.98912 -0.009,2.02515 -0.0408,0.2001 -0.10799,0.33882 -0.25286,0.39872 l -0.0335,0.0139 -1.58756,0.002 -2.36477,0.002 c -0.20536,-0.0102 -0.14582,-0.34355 -0.0636,-0.35626 z"
       id="path2141-6-0-9"
       sodipodi:nodetypes="zsccczzcccccsscccssscsccczz" />
  </g>
</svg>
