<?xml version="1.0" encoding="UTF-8" standalone="no"?>
<!-- Created with Inkscape (http://www.inkscape.org/) -->

<svg
   width="210mm"
   height="297mm"
   viewBox="0 0 210 297"
   version="1.1"
   id="svg9347"
   inkscape:version="1.1.2 (1:1.1+202202050950+0a00cf5339)"
   sodipodi:docname="OpenDrop_Cartridge.svg"
   xmlns:inkscape="http://www.inkscape.org/namespaces/inkscape"
   xmlns:sodipodi="http://sodipodi.sourceforge.net/DTD/sodipodi-0.dtd"
   xmlns="http://www.w3.org/2000/svg"
   xmlns:svg="http://www.w3.org/2000/svg">
  <sodipodi:namedview
     id="namedview9349"
     pagecolor="#ffffff"
     bordercolor="#666666"
     borderopacity="1.0"
     inkscape:pageshadow="2"
     inkscape:pageopacity="0.0"
     inkscape:pagecheckerboard="0"
     inkscape:document-units="mm"
     showgrid="false"
     inkscape:zoom="1.1326109"
     inkscape:cx="115.22051"
     inkscape:cy="253.83829"
     inkscape:window-width="1974"
     inkscape:window-height="1088"
     inkscape:window-x="74"
     inkscape:window-y="27"
     inkscape:window-maximized="1"
     inkscape:current-layer="layer1" />
  <defs
     id="defs9344" />
  <g
     inkscape:label="Layer 1"
     inkscape:groupmode="layer"
     id="layer1">
    <path
       d="m 43.47896,54.598732 -6.6e-4,-3.24848 c 0.001,-0.31761 0.21654,-0.54511 0.48841,-0.5475 0.2822,-0.003 0.50156,0.19751 0.50567,0.5475 l -0.003,3.24848 h 37.592 l 0.003,-8.99414 h -0.8666 c -0.72249,-0.008 -1.13522,-0.44882 -1.13022,-1.01556 0.005,-0.54601 0.47457,-0.97888 1.13022,-0.98088 h 0.74384 0.127 v -7.01044 c -1.07308,0 -1.99648,-0.89608 -1.98748,-2.02754 0.009,-1.09009 0.9144,-1.95768 1.98748,-1.95768 l 0.008,-31.539188 c 0,-0.551842 -0.44836,-0.997762 -1.00065,-0.998106 C 51.63345,0.07502 29.201964,0.074991 1.075794,0.075313 0.523624,0.075542 0.075263,0.521464 0.075263,1.073304 v 31.539188 c 1.073079,0 1.978861,0.86759 1.987482,1.95768 0.0089,1.13146 -0.914407,2.02754 -1.987482,2.02754 l -8.5e-4,7.01044 h 0.86999 c 0.65565,0.002 1.12531,0.43487 1.13022,0.98088 0.005,0.56674 -0.40773,1.00732 -1.13022,1.01556 h -0.8666 v 8.99414 H 43.47878"
       style="display:inline;fill:#ff0000;fill-opacity:1;stroke:#2a0606;stroke-width:0.1;stroke-linecap:round;stroke-linejoin:round;stroke-miterlimit:4;stroke-dasharray:none;stroke-opacity:1"
       id="path413339"
       sodipodi:nodetypes="ccccccccsccccsccccccscccccccc" />
    <circle
       cx="80.081375"
       cy="48.601032"
       r="0.90000075"
       id="circle101200"
       style="display:inline;fill:#2e2e2e;fill-opacity:0.0793651;stroke:#000000;stroke-width:0.1;stroke-linecap:round;stroke-linejoin:round;stroke-miterlimit:4;stroke-dasharray:none;stroke-opacity:1" />
    <circle
       cx="2.0812771"
       cy="48.601032"
       r="0.90000075"
       id="circle101206"
       style="display:inline;fill:#2e2e2e;fill-opacity:0.0793651;stroke:#000000;stroke-width:0.1;stroke-linecap:round;stroke-linejoin:round;stroke-miterlimit:4;stroke-dasharray:none;stroke-opacity:1" />
    <path
       d="m 80.4639,49.523812 -0.18796,0.0584"
       id="path102802"
       style="display:inline;fill:#2e2e2e;fill-opacity:0.0793651;stroke:#000000;stroke-width:0.1;stroke-linecap:round;stroke-linejoin:round;stroke-miterlimit:4;stroke-dasharray:none;stroke-opacity:1" />
    <path
       d="m 81.05064,48.804992 -0.0559,0.18796"
       id="path102804"
       style="display:inline;fill:#2e2e2e;fill-opacity:0.0793651;stroke:#000000;stroke-width:0.1;stroke-linecap:round;stroke-linejoin:round;stroke-miterlimit:4;stroke-dasharray:none;stroke-opacity:1" />
    <path
       d="m 80.90078,49.163132 -0.11938,0.14732"
       id="path102806"
       style="display:inline;fill:#2e2e2e;fill-opacity:0.0793651;stroke:#000000;stroke-width:0.1;stroke-linecap:round;stroke-linejoin:round;stroke-miterlimit:4;stroke-dasharray:none;stroke-opacity:1" />
    <path
       d="m 80.99476,48.992952 -0.094,0.17018"
       id="path102808"
       style="display:inline;fill:#2e2e2e;fill-opacity:0.0793651;stroke:#000000;stroke-width:0.1;stroke-linecap:round;stroke-linejoin:round;stroke-miterlimit:4;stroke-dasharray:none;stroke-opacity:1" />
    <path
       d="m 79.3717,49.310452 -0.12192,-0.14732"
       id="path102822"
       style="display:inline;fill:#2e2e2e;fill-opacity:0.0793651;stroke:#000000;stroke-width:0.1;stroke-linecap:round;stroke-linejoin:round;stroke-miterlimit:4;stroke-dasharray:none;stroke-opacity:1" />
    <path
       d="M 79.51902,49.432372 79.3717,49.310452"
       id="path102824"
       style="display:inline;fill:#2e2e2e;fill-opacity:0.0793651;stroke:#000000;stroke-width:0.1;stroke-linecap:round;stroke-linejoin:round;stroke-miterlimit:4;stroke-dasharray:none;stroke-opacity:1" />
    <path
       d="m 79.68666,47.687392 0.18796,-0.0584"
       id="path102840"
       style="display:inline;fill:#2e2e2e;fill-opacity:0.0793651;stroke:#000000;stroke-width:0.1;stroke-linecap:round;stroke-linejoin:round;stroke-miterlimit:4;stroke-dasharray:none;stroke-opacity:1" />
    <path
       d="m 79.51902,47.778832 0.16764,-0.0914"
       id="path102842"
       style="display:inline;fill:#2e2e2e;fill-opacity:0.0793651;stroke:#000000;stroke-width:0.1;stroke-linecap:round;stroke-linejoin:round;stroke-miterlimit:4;stroke-dasharray:none;stroke-opacity:1" />
    <path
       d="m 79.87462,49.582232 -0.18796,-0.0584"
       id="path102870"
       style="display:inline;fill:#2e2e2e;fill-opacity:0.0793651;stroke:#000000;stroke-width:0.1;stroke-linecap:round;stroke-linejoin:round;stroke-miterlimit:4;stroke-dasharray:none;stroke-opacity:1" />
    <path
       d="m 1.518163,47.778832 0.17018,-0.0914"
       id="path102872"
       style="display:inline;fill:#2e2e2e;fill-opacity:0.0793651;stroke:#000000;stroke-width:0.1;stroke-linecap:round;stroke-linejoin:round;stroke-miterlimit:4;stroke-dasharray:none;stroke-opacity:1" />
    <path
       d="m 1.370843,47.900752 0.14732,-0.12192"
       id="path102874"
       style="display:inline;fill:#2e2e2e;fill-opacity:0.0793651;stroke:#000000;stroke-width:0.1;stroke-linecap:round;stroke-linejoin:round;stroke-miterlimit:4;stroke-dasharray:none;stroke-opacity:1" />
    <path
       d="m 2.902463,48.048072 0.09144,0.17018"
       id="path102900"
       style="display:inline;fill:#2e2e2e;fill-opacity:0.0793651;stroke:#000000;stroke-width:0.1;stroke-linecap:round;stroke-linejoin:round;stroke-miterlimit:4;stroke-dasharray:none;stroke-opacity:1" />
    <path
       d="m 2.780543,47.900752 0.12192,0.14732"
       id="path102902"
       style="display:inline;fill:#2e2e2e;fill-opacity:0.0793651;stroke:#000000;stroke-width:0.1;stroke-linecap:round;stroke-linejoin:round;stroke-miterlimit:4;stroke-dasharray:none;stroke-opacity:1" />
    <path
       d="m 2.633223,49.432372 -0.17018,0.0914"
       id="path102912"
       style="display:inline;fill:#2e2e2e;fill-opacity:0.0793651;stroke:#000000;stroke-width:0.1;stroke-linecap:round;stroke-linejoin:round;stroke-miterlimit:4;stroke-dasharray:none;stroke-opacity:1" />
    <path
       d="m 2.780543,49.310452 -0.14732,0.12192"
       id="path102914"
       style="display:inline;fill:#2e2e2e;fill-opacity:0.0793651;stroke:#000000;stroke-width:0.1;stroke-linecap:round;stroke-linejoin:round;stroke-miterlimit:4;stroke-dasharray:none;stroke-opacity:1" />
    <path
       d="m 79.3717,47.900752 0.14732,-0.12192"
       id="path102946"
       style="display:inline;fill:#2e2e2e;fill-opacity:0.0793651;stroke:#000000;stroke-width:0.1;stroke-linecap:round;stroke-linejoin:round;stroke-miterlimit:4;stroke-dasharray:none;stroke-opacity:1" />
    <path
       d="m 79.24978,48.048072 0.12192,-0.14732"
       id="path102948"
       style="display:inline;fill:#2e2e2e;fill-opacity:0.0793651;stroke:#000000;stroke-width:0.1;stroke-linecap:round;stroke-linejoin:round;stroke-miterlimit:4;stroke-dasharray:none;stroke-opacity:1" />
    <path
       d="m 2.277623,49.582232 -0.2032,0.0203"
       id="path102962"
       style="display:inline;fill:#2e2e2e;fill-opacity:0.0793651;stroke:#000000;stroke-width:0.1;stroke-linecap:round;stroke-linejoin:round;stroke-miterlimit:4;stroke-dasharray:none;stroke-opacity:1" />
    <path
       d="m 2.463043,49.523812 -0.18542,0.0584"
       id="path102964"
       style="display:inline;fill:#2e2e2e;fill-opacity:0.0793651;stroke:#000000;stroke-width:0.1;stroke-linecap:round;stroke-linejoin:round;stroke-miterlimit:4;stroke-dasharray:none;stroke-opacity:1" />
    <path
       d="m 79.15834,48.992952 -0.0584,-0.18796"
       id="path102984"
       style="display:inline;fill:#2e2e2e;fill-opacity:0.0793651;stroke:#000000;stroke-width:0.1;stroke-linecap:round;stroke-linejoin:round;stroke-miterlimit:4;stroke-dasharray:none;stroke-opacity:1" />
    <path
       d="m 79.24978,49.163132 -0.0914,-0.17018"
       id="path102986"
       style="display:inline;fill:#2e2e2e;fill-opacity:0.0793651;stroke:#000000;stroke-width:0.1;stroke-linecap:round;stroke-linejoin:round;stroke-miterlimit:4;stroke-dasharray:none;stroke-opacity:1" />
    <path
       d="m 2.277623,47.628972 0.18542,0.0584"
       id="path102994"
       style="display:inline;fill:#2e2e2e;fill-opacity:0.0793651;stroke:#000000;stroke-width:0.1;stroke-linecap:round;stroke-linejoin:round;stroke-miterlimit:4;stroke-dasharray:none;stroke-opacity:1" />
    <path
       d="m 2.074423,47.608652 0.2032,0.0203"
       id="path102996"
       style="display:inline;fill:#2e2e2e;fill-opacity:0.0793651;stroke:#000000;stroke-width:0.1;stroke-linecap:round;stroke-linejoin:round;stroke-miterlimit:4;stroke-dasharray:none;stroke-opacity:1" />
    <path
       d="m 81.05064,48.403672 0.0203,0.20066"
       id="path102998"
       style="display:inline;fill:#2e2e2e;fill-opacity:0.0793651;stroke:#000000;stroke-width:0.1;stroke-linecap:round;stroke-linejoin:round;stroke-miterlimit:4;stroke-dasharray:none;stroke-opacity:1" />
    <path
       d="m 2.633223,47.778832 0.14732,0.12192"
       id="path103018"
       style="display:inline;fill:#2e2e2e;fill-opacity:0.0793651;stroke:#000000;stroke-width:0.1;stroke-linecap:round;stroke-linejoin:round;stroke-miterlimit:4;stroke-dasharray:none;stroke-opacity:1" />
    <path
       d="m 2.463043,47.687392 0.17018,0.0914"
       id="path103020"
       style="display:inline;fill:#2e2e2e;fill-opacity:0.0793651;stroke:#000000;stroke-width:0.1;stroke-linecap:round;stroke-linejoin:round;stroke-miterlimit:4;stroke-dasharray:none;stroke-opacity:1" />
    <path
       d="m 80.99476,48.218252 0.0559,0.18542"
       id="path103022"
       style="display:inline;fill:#2e2e2e;fill-opacity:0.0793651;stroke:#000000;stroke-width:0.1;stroke-linecap:round;stroke-linejoin:round;stroke-miterlimit:4;stroke-dasharray:none;stroke-opacity:1" />
    <path
       d="m 80.90078,48.048072 0.094,0.17018"
       id="path103024"
       style="display:inline;fill:#2e2e2e;fill-opacity:0.0793651;stroke:#000000;stroke-width:0.1;stroke-linecap:round;stroke-linejoin:round;stroke-miterlimit:4;stroke-dasharray:none;stroke-opacity:1" />
    <path
       d="m 80.07528,49.602552 -0.20066,-0.0203"
       id="path103042"
       style="display:inline;fill:#2e2e2e;fill-opacity:0.0793651;stroke:#000000;stroke-width:0.1;stroke-linecap:round;stroke-linejoin:round;stroke-miterlimit:4;stroke-dasharray:none;stroke-opacity:1" />
    <path
       d="m 80.27594,49.582232 -0.20066,0.0203"
       id="path103048"
       style="display:inline;fill:#2e2e2e;fill-opacity:0.0793651;stroke:#000000;stroke-width:0.1;stroke-linecap:round;stroke-linejoin:round;stroke-miterlimit:4;stroke-dasharray:none;stroke-opacity:1" />
    <path
       d="m 1.248923,49.163132 -0.09144,-0.17018"
       id="path103056"
       style="display:inline;fill:#2e2e2e;fill-opacity:0.0793651;stroke:#000000;stroke-width:0.1;stroke-linecap:round;stroke-linejoin:round;stroke-miterlimit:4;stroke-dasharray:none;stroke-opacity:1" />
    <path
       d="m 1.370843,49.310452 -0.12192,-0.14732"
       id="path103058"
       style="display:inline;fill:#2e2e2e;fill-opacity:0.0793651;stroke:#000000;stroke-width:0.1;stroke-linecap:round;stroke-linejoin:round;stroke-miterlimit:4;stroke-dasharray:none;stroke-opacity:1" />
    <path
       d="m 80.63154,49.432372 -0.16764,0.0914"
       id="path103076"
       style="display:inline;fill:#2e2e2e;fill-opacity:0.0793651;stroke:#000000;stroke-width:0.1;stroke-linecap:round;stroke-linejoin:round;stroke-miterlimit:4;stroke-dasharray:none;stroke-opacity:1" />
    <path
       d="m 2.902463,49.163132 -0.12192,0.14732"
       id="path103106"
       style="display:inline;fill:#2e2e2e;fill-opacity:0.0793651;stroke:#000000;stroke-width:0.1;stroke-linecap:round;stroke-linejoin:round;stroke-miterlimit:4;stroke-dasharray:none;stroke-opacity:1" />
    <path
       d="m 2.993903,48.992952 -0.09144,0.17018"
       id="path103108"
       style="display:inline;fill:#2e2e2e;fill-opacity:0.0793651;stroke:#000000;stroke-width:0.1;stroke-linecap:round;stroke-linejoin:round;stroke-miterlimit:4;stroke-dasharray:none;stroke-opacity:1" />
    <path
       d="m 1.873763,47.628972 0.20066,-0.0203"
       id="path103132"
       style="display:inline;fill:#2e2e2e;fill-opacity:0.0793651;stroke:#000000;stroke-width:0.1;stroke-linecap:round;stroke-linejoin:round;stroke-miterlimit:4;stroke-dasharray:none;stroke-opacity:1" />
    <path
       d="m 1.688343,47.687392 0.18542,-0.0584"
       id="path103134"
       style="display:inline;fill:#2e2e2e;fill-opacity:0.0793651;stroke:#000000;stroke-width:0.1;stroke-linecap:round;stroke-linejoin:round;stroke-miterlimit:4;stroke-dasharray:none;stroke-opacity:1" />
    <path
       d="m 1.099063,48.804992 -0.02032,-0.20066"
       id="path103136"
       style="display:inline;fill:#2e2e2e;fill-opacity:0.0793651;stroke:#000000;stroke-width:0.1;stroke-linecap:round;stroke-linejoin:round;stroke-miterlimit:4;stroke-dasharray:none;stroke-opacity:1" />
    <path
       d="m 1.157483,48.992952 -0.05842,-0.18796"
       id="path103138"
       style="display:inline;fill:#2e2e2e;fill-opacity:0.0793651;stroke:#000000;stroke-width:0.1;stroke-linecap:round;stroke-linejoin:round;stroke-miterlimit:4;stroke-dasharray:none;stroke-opacity:1" />
    <path
       d="m 79.15834,48.218252 0.0914,-0.17018"
       id="path103146"
       style="display:inline;fill:#2e2e2e;fill-opacity:0.0793651;stroke:#000000;stroke-width:0.1;stroke-linecap:round;stroke-linejoin:round;stroke-miterlimit:4;stroke-dasharray:none;stroke-opacity:1" />
    <path
       d="m 79.09992,48.403672 0.0584,-0.18542"
       id="path103148"
       style="display:inline;fill:#2e2e2e;fill-opacity:0.0793651;stroke:#000000;stroke-width:0.1;stroke-linecap:round;stroke-linejoin:round;stroke-miterlimit:4;stroke-dasharray:none;stroke-opacity:1" />
    <path
       d="m 79.0796,48.604332 0.0203,-0.20066"
       id="path103174"
       style="display:inline;fill:#2e2e2e;fill-opacity:0.0793651;stroke:#000000;stroke-width:0.1;stroke-linecap:round;stroke-linejoin:round;stroke-miterlimit:4;stroke-dasharray:none;stroke-opacity:1" />
    <path
       d="m 79.09992,48.804992 -0.0203,-0.20066"
       id="path103176"
       style="display:inline;fill:#2e2e2e;fill-opacity:0.0793651;stroke:#000000;stroke-width:0.1;stroke-linecap:round;stroke-linejoin:round;stroke-miterlimit:4;stroke-dasharray:none;stroke-opacity:1" />
    <path
       d="m 79.68666,49.523812 -0.16764,-0.0914"
       id="path103186"
       style="display:inline;fill:#2e2e2e;fill-opacity:0.0793651;stroke:#000000;stroke-width:0.1;stroke-linecap:round;stroke-linejoin:round;stroke-miterlimit:4;stroke-dasharray:none;stroke-opacity:1" />
    <path
       d="m 81.07096,48.604332 -0.0203,0.20066"
       id="path103188"
       style="display:inline;fill:#2e2e2e;fill-opacity:0.0793651;stroke:#000000;stroke-width:0.1;stroke-linecap:round;stroke-linejoin:round;stroke-miterlimit:4;stroke-dasharray:none;stroke-opacity:1" />
    <path
       d="m 1.099063,48.403672 0.05842,-0.18542"
       id="path103250"
       style="display:inline;fill:#2e2e2e;fill-opacity:0.0793651;stroke:#000000;stroke-width:0.1;stroke-linecap:round;stroke-linejoin:round;stroke-miterlimit:4;stroke-dasharray:none;stroke-opacity:1" />
    <path
       d="m 1.078743,48.604332 0.02032,-0.20066"
       id="path103252"
       style="display:inline;fill:#2e2e2e;fill-opacity:0.0793651;stroke:#000000;stroke-width:0.1;stroke-linecap:round;stroke-linejoin:round;stroke-miterlimit:4;stroke-dasharray:none;stroke-opacity:1" />
    <path
       d="m 3.052323,48.804992 -0.05842,0.18796"
       id="path103270"
       style="display:inline;fill:#2e2e2e;fill-opacity:0.0793651;stroke:#000000;stroke-width:0.1;stroke-linecap:round;stroke-linejoin:round;stroke-miterlimit:4;stroke-dasharray:none;stroke-opacity:1" />
    <path
       d="m 3.072643,48.604332 -0.02032,0.20066"
       id="path103272"
       style="display:inline;fill:#2e2e2e;fill-opacity:0.0793651;stroke:#000000;stroke-width:0.1;stroke-linecap:round;stroke-linejoin:round;stroke-miterlimit:4;stroke-dasharray:none;stroke-opacity:1" />
    <path
       d="m 3.052323,48.403672 0.02032,0.20066"
       id="path103296"
       style="display:inline;fill:#2e2e2e;fill-opacity:0.0793651;stroke:#000000;stroke-width:0.1;stroke-linecap:round;stroke-linejoin:round;stroke-miterlimit:4;stroke-dasharray:none;stroke-opacity:1" />
    <path
       d="m 2.993903,48.218252 0.05842,0.18542"
       id="path103298"
       style="display:inline;fill:#2e2e2e;fill-opacity:0.0793651;stroke:#000000;stroke-width:0.1;stroke-linecap:round;stroke-linejoin:round;stroke-miterlimit:4;stroke-dasharray:none;stroke-opacity:1" />
    <path
       d="m 80.4639,47.687392 0.16764,0.0914"
       id="path103300"
       style="display:inline;fill:#2e2e2e;fill-opacity:0.0793651;stroke:#000000;stroke-width:0.1;stroke-linecap:round;stroke-linejoin:round;stroke-miterlimit:4;stroke-dasharray:none;stroke-opacity:1" />
    <path
       d="m 80.27594,47.628972 0.18796,0.0584"
       id="path103302"
       style="display:inline;fill:#2e2e2e;fill-opacity:0.0793651;stroke:#000000;stroke-width:0.1;stroke-linecap:round;stroke-linejoin:round;stroke-miterlimit:4;stroke-dasharray:none;stroke-opacity:1" />
    <path
       d="m 80.7814,47.900752 0.11938,0.14732"
       id="path103364"
       style="display:inline;fill:#2e2e2e;fill-opacity:0.0793651;stroke:#000000;stroke-width:0.1;stroke-linecap:round;stroke-linejoin:round;stroke-miterlimit:4;stroke-dasharray:none;stroke-opacity:1" />
    <path
       d="m 80.63154,47.778832 0.14986,0.12192"
       id="path103366"
       style="display:inline;fill:#2e2e2e;fill-opacity:0.0793651;stroke:#000000;stroke-width:0.1;stroke-linecap:round;stroke-linejoin:round;stroke-miterlimit:4;stroke-dasharray:none;stroke-opacity:1" />
    <path
       d="m 1.518163,49.432372 -0.14732,-0.12192"
       id="path103376"
       style="display:inline;fill:#2e2e2e;fill-opacity:0.0793651;stroke:#000000;stroke-width:0.1;stroke-linecap:round;stroke-linejoin:round;stroke-miterlimit:4;stroke-dasharray:none;stroke-opacity:1" />
    <path
       d="m 1.688343,49.523812 -0.17018,-0.0914"
       id="path103378"
       style="display:inline;fill:#2e2e2e;fill-opacity:0.0793651;stroke:#000000;stroke-width:0.1;stroke-linecap:round;stroke-linejoin:round;stroke-miterlimit:4;stroke-dasharray:none;stroke-opacity:1" />
    <path
       d="m 1.873763,49.582232 -0.18542,-0.0584"
       id="path103400"
       style="display:inline;fill:#2e2e2e;fill-opacity:0.0793651;stroke:#000000;stroke-width:0.1;stroke-linecap:round;stroke-linejoin:round;stroke-miterlimit:4;stroke-dasharray:none;stroke-opacity:1" />
    <path
       d="m 2.074423,49.602552 -0.20066,-0.0203"
       id="path103402"
       style="display:inline;fill:#2e2e2e;fill-opacity:0.0793651;stroke:#000000;stroke-width:0.1;stroke-linecap:round;stroke-linejoin:round;stroke-miterlimit:4;stroke-dasharray:none;stroke-opacity:1" />
    <path
       d="m 1.248923,48.048072 0.12192,-0.14732"
       id="path103422"
       style="display:inline;fill:#2e2e2e;fill-opacity:0.0793651;stroke:#000000;stroke-width:0.1;stroke-linecap:round;stroke-linejoin:round;stroke-miterlimit:4;stroke-dasharray:none;stroke-opacity:1" />
    <path
       d="m 1.157483,48.218252 0.09144,-0.17018"
       id="path103424"
       style="display:inline;fill:#2e2e2e;fill-opacity:0.0793651;stroke:#000000;stroke-width:0.1;stroke-linecap:round;stroke-linejoin:round;stroke-miterlimit:4;stroke-dasharray:none;stroke-opacity:1" />
    <path
       d="m 80.07528,47.608652 0.20066,0.0203"
       id="path103426"
       style="display:inline;fill:#2e2e2e;fill-opacity:0.0793651;stroke:#000000;stroke-width:0.1;stroke-linecap:round;stroke-linejoin:round;stroke-miterlimit:4;stroke-dasharray:none;stroke-opacity:1" />
    <path
       d="m 79.87462,47.628972 0.20066,-0.0203"
       id="path103428"
       style="display:inline;fill:#2e2e2e;fill-opacity:0.0793651;stroke:#000000;stroke-width:0.1;stroke-linecap:round;stroke-linejoin:round;stroke-miterlimit:4;stroke-dasharray:none;stroke-opacity:1" />
    <path
       d="m 80.7814,49.310452 -0.14986,0.12192"
       id="path103440"
       style="display:inline;fill:#2e2e2e;fill-opacity:0.0793651;stroke:#000000;stroke-width:0.1;stroke-linecap:round;stroke-linejoin:round;stroke-miterlimit:4;stroke-dasharray:none;stroke-opacity:1" />
    <path
       id="path10892-1-3-8-8-2"
       d="M 1.048908,0.05 C 0.497278,0.05 0.05,0.49677 0.05,1.048389 V 32.587552 A 1.9929911,1.9929911 0 0 1 2.037468,34.580202 1.9929911,1.9929911 0 0 1 0.05,36.573362 v 5.50664 l 6.426488,10e-4 c 2.47668,0.001 4.830659,1.07192 6.456442,2.93729 l 0.131789,0.15244 c 2.441051,2.79844 5.97114,4.40545 9.685179,4.40645 H 59.31614 c 3.71485,1.3e-4 7.2463,-1.60499 9.68676,-4.40437 l 0.13383,-0.15556 c 1.63057,-1.86592 3.9847,-2.93607 6.45956,-2.93625 l 6.42753,-10e-4 0.003,-5.50768 a 1.9929911,1.9929911 0 0 1 -1.97406,-1.99212 1.9929911,1.9929911 0 0 1 1.97509,-1.99213 L 82.03875,1.048389 C 82.03875,0.49677 81.59147,0.05 81.03984,0.05 Z"
       style="display:inline;vector-effect:none;fill:#ffffff;fill-opacity:1;stroke:#000000;stroke-width:0.1;stroke-linecap:butt;stroke-linejoin:miter;stroke-miterlimit:4;stroke-dasharray:none;stroke-dashoffset:0;stroke-opacity:1"
       inkscape:connector-curvature="0" />
    <flowRoot
       inkscape:export-ydpi="600"
       inkscape:export-xdpi="600"
       transform="matrix(0.26458333,0,0,0.26458333,5.478392,-52.636761)"
       style="font-style:normal;font-weight:normal;font-size:14.6667px;line-height:1.25;font-family:sans-serif;letter-spacing:0px;word-spacing:0px;display:inline;fill:#ffffff;fill-opacity:1;stroke:#000000;stroke-width:0.377953;stroke-miterlimit:4;stroke-dasharray:none;stroke-opacity:1"
       id="flowRoot4562-0-5-9"
       xml:space="preserve"><flowRegion
         style="fill:#ffffff;fill-opacity:1;stroke:#000000;stroke-width:0.377953;stroke-miterlimit:4;stroke-dasharray:none;stroke-opacity:1"
         id="flowRegion4564-7-0-02"><rect
           style="fill:#ffffff;fill-opacity:1;stroke:#000000;stroke-width:0.37795275;stroke-miterlimit:4;stroke-dasharray:none;stroke-opacity:1"
           y="349.16208"
           x="95.505005"
           height="29.699726"
           width="140.92812"
           id="rect4566-4-7-8" /></flowRegion><flowPara
         style="font-size:13.3333px;line-height:1.25;fill:#ffffff;fill-opacity:1;stroke:#000000;stroke-width:0.377953;stroke-miterlimit:4;stroke-dasharray:none;stroke-opacity:1"
         id="flowPara4568-5-7-3">CARTRIDGE </flowPara></flowRoot>
    <path
       inkscape:connector-curvature="0"
       d="m 8.113008,7.734562 h 4.351229 c 0.215611,-0.95822 1.066594,-1.639007 2.048769,-1.63901 h 21.482 10.100004 21.48201 c 0.98218,-2e-6 1.83317,0.68079 2.04878,1.63901 h 4.35122 c 1.1598,0 2.1,0.9402 2.1,2.1 v 22.384 c 0,1.1598 -0.9402,2.1 -2.1,2.1 H 69.6258 c -0.21561,0.95822 -1.0666,1.639 -2.04878,1.639 H 14.513006 c -0.982175,0 -1.833158,-0.68078 -2.048769,-1.639 H 8.113008 c -1.159797,0 -2.099998,-0.9402 -2.099998,-2.1 v -22.384 c 0,-1.1598 0.940201,-2.1 2.099998,-2.1"
       style="display:inline;fill:#ff0000;stroke:#000000;stroke-width:0.1;stroke-miterlimit:4;stroke-dasharray:none;stroke-opacity:1"
       id="path10101-1-1-9-0-9"
       sodipodi:nodetypes="ccccccccccccccccccc" />
    <path
       inkscape:connector-curvature="0"
       d="m 8.113008,19.534562 c -0.441827,0 -0.799999,-0.35817 -0.799999,-0.8 v -8.9 c 0,-0.44183 0.358172,-0.8 0.799999,-0.8 h 4.799999 c 0.441828,0 0.8,-0.35817 0.8,-0.8195 0,-0.46133 0.358172,-0.8195 0.799999,-0.8195 H 41.04501 67.57703 c 0.44182,0 0.79999,0.35817 0.79999,0.8195 0,0.46133 0.35817,0.8195 0.8,0.8195 h 4.8 c 0.44183,0 0.8,0.35817 0.8,0.8 v 8.9 c 0,0.44183 -0.35817,0.8 -0.8,0.8 h -4.8 c -0.44183,0 -0.8,0.35817 -0.8,0.80001 v 1.38399 c 0,0.44183 0.35817,0.8 0.8,0.8 h 4.8 c 0.44183,0 0.8,0.35817 0.8,0.8 v 8.9 c 0,0.44183 -0.35817,0.8 -0.8,0.8 h -4.8 c -0.44183,0 -0.8,0.35817 -0.8,0.8195 0,0.46133 -0.35817,0.8195 -0.79999,0.81951 H 14.513006 c -0.441827,-1e-5 -0.799999,-0.35818 -0.799999,-0.81951 0,-0.46133 -0.358172,-0.8195 -0.8,-0.8195 H 8.113008 c -0.441827,0 -0.799999,-0.35817 -0.799999,-0.8 v -8.9 c 0,-0.44182 0.358172,-0.8 0.799999,-0.8 h 4.799999 c 0.441828,0 0.8,-0.35817 0.8,-0.8 v -1.384 c 0,-0.44182 -0.358172,-0.8 -0.8,-0.8 z"
       style="display:inline;fill:#ba9b86;fill-opacity:1;stroke:#000000;stroke-width:0.1;stroke-linecap:round;stroke-miterlimit:4;stroke-dasharray:none;stroke-opacity:1"
       id="path10141-9-9-2-9-9"
       sodipodi:nodetypes="cccccccccccccccccccccccccccccccccccccc" />
  </g>
</svg>
