<?xml version="1.0" encoding="UTF-8" standalone="no"?>
<!-- Created with Inkscape (http://www.inkscape.org/) -->

<svg
   width="14.471333mm"
   height="10.551804mm"
   viewBox="0 0 14.471333 10.551804"
   version="1.1"
   id="svg9347"
   inkscape:version="1.2.1 (9c6d41e, 2022-07-14)"
   sodipodi:docname="OpenDropLogo.svg"
   xmlns:inkscape="http://www.inkscape.org/namespaces/inkscape"
   xmlns:sodipodi="http://sodipodi.sourceforge.net/DTD/sodipodi-0.dtd"
   xmlns="http://www.w3.org/2000/svg"
   xmlns:svg="http://www.w3.org/2000/svg">
  <sodipodi:namedview
     id="namedview9349"
     pagecolor="#ffffff"
     bordercolor="#666666"
     borderopacity="1.0"
     inkscape:pageshadow="2"
     inkscape:pageopacity="0.0"
     inkscape:pagecheckerboard="0"
     inkscape:document-units="mm"
     showgrid="false"
     inkscape:zoom="0.80087682"
     inkscape:cx="518.18206"
     inkscape:cy="269.08008"
     inkscape:window-width="1920"
     inkscape:window-height="1027"
     inkscape:window-x="0"
     inkscape:window-y="25"
     inkscape:window-maximized="0"
     inkscape:current-layer="layer1"
     inkscape:showpageshadow="2"
     inkscape:deskcolor="#d1d1d1" />
  <defs
     id="defs9344" />
  <g
     inkscape:label="Layer 1"
     inkscape:groupmode="layer"
     id="layer1">
    <path
       style="fill:#ffffff;fill-opacity:1;stroke:#000000;stroke-width:0.231825;stroke-linecap:butt;stroke-linejoin:miter;stroke-miterlimit:4;stroke-dasharray:none;stroke-opacity:1"
       d="m 6.7851149,2.7535115 c -0.39637,-0.58041 -0.33006,-1.510058 -0.23075,-1.661939 0.0993,-0.15188201 0.92297,-0.30668501 1.6006,-0.11391201 0.67763,0.19277301 1.13912,0.71852101 1.13912,0.71852101 0,0 -0.38555,0.27747 -0.49654,0.66886 -0.11099,0.39139 0.008,0.97346 0.008,0.97346 -0.68645,0.19391 -1.69043,-0.14807 -2.02032,-0.58499 z"
       id="path2996-8-3-0"
       inkscape:connector-curvature="0"
       sodipodi:nodetypes="csscscc" />
    <path
       style="fill:#ffffff;fill-opacity:1;stroke:#000000;stroke-width:0.231825;stroke-linecap:butt;stroke-linejoin:miter;stroke-miterlimit:4;stroke-dasharray:none;stroke-opacity:1"
       d="m 9.3086849,1.6728115 c -0.33881,-0.426436 -0.24069,-1.18550601 -0.17525,-1.28515401 0.0879,-0.133779 0.41913,-0.02974 0.74189,0.07594 0.3300501,0.10807 0.5760101,0.38276 0.6338101,0.54911201 -0.20786,0.17237 -0.44524,0.31332 -0.5783201,0.543272 -0.27655,-0.06369 -0.3911,-0.03005 -0.62213,0.11683 z"
       id="path3768-0-3-0"
       inkscape:connector-curvature="0"
       sodipodi:nodetypes="cssccc" />
    <path
       style="fill:#ffffff;fill-opacity:1;stroke:#000000;stroke-width:0.231825;stroke-linecap:butt;stroke-linejoin:miter;stroke-miterlimit:4;stroke-dasharray:none;stroke-opacity:1"
       d="m 10.540765,0.98383949 c 0.32012,-0.211252 0.6435,-0.27539 0.95004,-0.31393 -0.13631,-0.251968 -0.5122,-0.495677 -0.71047,-0.549374 -0.33122,0.09952 -0.3222,0.5209 -0.23957,0.863304 z"
       id="path3770-6-9-5"
       inkscape:connector-curvature="0"
       sodipodi:nodetypes="cccc" />
    <path
       style="fill:#ffffff;fill-opacity:1;stroke:#000000;stroke-width:0.231825;stroke-linecap:butt;stroke-linejoin:miter;stroke-miterlimit:4;stroke-dasharray:none;stroke-opacity:1"
       d="m 9.9631549,1.5649515 c -0.11341,0.20746 -0.1516,0.42615 -0.0336,0.71651 0.2097001,0.3448 1.1023301,0.91002 1.3857501,0.8167 0.21085,-0.17651 0.5608,-0.91713 0.5608,-1.28515 0,-0.368022 -0.25995,-1.13911501 -0.4352,-1.13327201 -0.17525,0.0058 -1.02874,0.213471 -1.4777201,0.88521201 z"
       id="path3772-9-7-2"
       inkscape:connector-curvature="0"
       sodipodi:nodetypes="cccssc" />
    <path
       style="fill:#ffffff;fill-opacity:1;stroke:#000000;stroke-width:0.231825;stroke-linecap:butt;stroke-linejoin:miter;stroke-miterlimit:4;stroke-dasharray:none;stroke-opacity:1"
       d="m 11.858435,1.3679895 c 0.29669,0.07975 0.76004,-0.40067301 0.80961,-0.55763701 0.0496,-0.156965 0.78069,0.66503301 0.74765,1.02026901 -0.0331,0.35523 -0.19415,0.65264 -0.5783,0.73112 -0.37268,0.0761 -1.03679,0.0785 -1.3755,0.3635 0.38082,-0.58229 0.44683,-1.06284 0.39654,-1.557252 z"
       id="path3774-3-5-9"
       inkscape:connector-curvature="0"
       sodipodi:nodetypes="cssscc" />
    <path
       style="fill:#ffffff;fill-opacity:1;stroke:#000000;stroke-width:0.231825;stroke-linecap:butt;stroke-linejoin:miter;stroke-miterlimit:4;stroke-dasharray:none;stroke-opacity:1"
       d="m 11.093295,3.3844015 c 0.23367,-0.35049 0.77693,-0.7366 1.26763,-0.74188 0.54328,-0.006 1.10991,-0.27456 1.64734,-0.97555 0.19011,-0.247969 0.59584,0.94634 0.13436,2.11466 -0.21721,0.5499 -0.67179,1.01644 -1.09823,1.26179 -0.49653,0 -0.99891,-0.27455 -1.27347,-0.86456 -0.27455,-0.59 -0.67763,-0.79446 -0.67763,-0.79446 z"
       id="path3776-1-3-4"
       inkscape:connector-curvature="0"
       sodipodi:nodetypes="cssscsc" />
    <path
       style="fill:#ffffff;fill-opacity:1;stroke:#000000;stroke-width:0.231825;stroke-linecap:butt;stroke-linejoin:miter;stroke-miterlimit:4;stroke-dasharray:none;stroke-opacity:1"
       d="m 11.064095,3.3902415 c -0.92298,-0.30376 -1.7700101,-0.15188 -2.2022901,-0.0643 -0.10779,-0.29423 -0.12637,-1.0887 0.14604,-1.3611 0.43228,-0.432279 0.92297,-0.572479 0.88792,-0.32129 -0.035,0.25119 -0.10757,0.59906 0.2979301,0.9405 0.33715,0.2839 0.68931,0.41475 1.10406,0.55495 -0.14604,0.111 -0.23366,0.25119 -0.23366,0.25119 z"
       id="path3778-4-5-5"
       inkscape:connector-curvature="0"
       sodipodi:nodetypes="ccssscc" />
    <path
       style="fill:#5adf3f;fill-opacity:1;stroke:#000000;stroke-width:0.347737;stroke-linecap:butt;stroke-linejoin:miter;stroke-miterlimit:4;stroke-dasharray:none;stroke-opacity:1"
       d="m 5.2808949,2.8937115 c 0.54911,-0.29208 1.08671,-0.54851 1.69407,0.0701 0.63089,0.64257 1.88074,0.43816 2.33664,0.36218 0.5608,-0.0935 1.8680901,-0.13329 2.1964501,0.51406 0.50835,1.00221 1.75165,1.6203 2.30076,1.41 0.54911,-0.21029 -0.51361,1.52322 -1.16787,1.87371 0.15124,0.95055 -0.76863,2.566 -1.46168,2.69585 -0.61921,0.0935 -1.7741901,-0.30151 -2.3700401,-0.55854 -0.59584,-0.25704 -0.64282,0.0558 -1.02836,0.14928 -0.38555,0.0935 -0.77085,-0.2778 -0.98115,-0.30117 -0.2103,-0.0234 -1.20415,1.3729595 -2.04457,1.2617895 -1.41948,-0.18776 -2.41842,-2.8740695 -3.01427,-3.1778395 -0.59584,-0.30376 -1.22140996,-0.50604 -1.54041996,-0.82266 0.15188,-0.43228 0.46688,-0.93241 0.7357,-1.15204 0.60751996,0.0117 1.74469996,0.55678 1.93163996,0.24134 0.18693,-0.31545 -0.24087,-0.17811 -0.22731,-0.53318 0.0254,-0.66443 2.64041,-2.03288 2.64041,-2.03288 z"
       id="path3780-1-9-0"
       inkscape:connector-curvature="0"
       sodipodi:nodetypes="cssssccsssssccssc" />
    <path
       style="fill:none;stroke:#000000;stroke-width:0.347737;stroke-linecap:butt;stroke-linejoin:miter;stroke-miterlimit:4;stroke-dasharray:none;stroke-opacity:1"
       d="m 4.1091749,3.5656615 c 1.16327,-0.58126 2.54509,-0.11154 2.90697,0.87435 0.32306,0.88014 0.43902,1.5006 0.43902,1.5006"
       id="path3782-0-9-8"
       inkscape:connector-curvature="0"
       sodipodi:nodetypes="csc" />
    <path
       style="fill:#000000;fill-opacity:1;stroke:#000000;stroke-width:0.347737;stroke-linecap:butt;stroke-linejoin:miter;stroke-miterlimit:4;stroke-dasharray:none;stroke-opacity:1"
       d="m 13.041385,5.1778615 c -1.16874,-0.44345 -1.79912,-0.46146 -2.37741,-0.13101 -0.5783,0.33045 -1.7989601,1.12703 -1.7989601,1.12703 0,0 2.3131601,-1.63573 2.5114301,-2.03228 0.19827,-0.39654 0.9281,0.79526 0.9281,0.79526 z"
       id="path3784-4-8-8"
       inkscape:connector-curvature="0"
       sodipodi:nodetypes="cscscc" />
    <path
       style="fill:#000000;fill-opacity:1;stroke:#000000;stroke-width:0.347737;stroke-linecap:butt;stroke-linejoin:miter;stroke-miterlimit:4;stroke-dasharray:none;stroke-opacity:1"
       d="m 1.8693949,7.1171915 c 0.73604,-0.26871 0.99307,-0.53158 0.99307,-0.53158 0,0 0.46733,0.43228 1.20337,0.47901 0.73605,0.0467 1.11797,0.0179 0.82951,0.19861 -0.43812,0.10515 -2.26803,-0.019 -2.62288,0.0993 -0.34466,-0.12851 -0.40307,-0.24534 -0.40307,-0.24534 z"
       id="path3805-0-1-2"
       inkscape:connector-curvature="0"
       sodipodi:nodetypes="ccsccc" />
    <path
       style="fill:#c1dcfc;fill-opacity:1;stroke:#000000;stroke-width:0.231825;stroke-linecap:butt;stroke-linejoin:miter;stroke-miterlimit:4;stroke-dasharray:none;stroke-opacity:1"
       d="m 8.5952249,7.1261115 c -0.45437,0.38001 -2.18924,0.42958 -2.42882,0.10739 -0.23957,-0.32219 0.0436,-0.82111 0.34698,-1.0244 0.30976,-0.20756 0.99135,-0.45437 1.56138,-0.15696 0.57003,0.2974 0.97483,0.69395 0.52046,1.07397 z"
       id="path3807-8-2-4"
       inkscape:connector-curvature="0"
       sodipodi:nodetypes="zsssz" />
    <path
       style="fill:#000000;fill-opacity:1;stroke:#000000;stroke-width:0.231825;stroke-linecap:butt;stroke-linejoin:miter;stroke-miterlimit:4;stroke-dasharray:none;stroke-opacity:1"
       d="m 8.7959149,6.9919215 c 0.44611,-0.24784 1.02198,-1.11327 1.03024,-1.30328 0.008,-0.19001 -0.30566,0.14871 -0.48741,0.0248 -0.18175,-0.12392 -0.13218,-0.57829 -0.33871,-0.69395 -0.20654,-0.11565 -1.11115,0.55351 -1.29289,0.8757 -0.28915,-0.0413 -0.88809,0.0454 -1.1855,0.30567 -0.39654,-0.13218 -0.94179,-0.43785 -0.99962,-0.33872 -0.0578,0.0991 -0.14003,1.06428 0.22306,1.26398 0.16522,0.0909 0.19001,0.095 0.34697,0.0826 -0.13631,-0.34697 0.13218,-0.79721 0.31806,-0.93352 0.22739,-0.16675 0.75591,-0.42133 1.04505,-0.40481 0.28915,0.0165 1.04986,0.29516 1.22335,0.52648 0.17349,0.23131 0.1174,0.59505 0.1174,0.59505 z"
       id="path3809-8-2-0"
       inkscape:connector-curvature="0"
       sodipodi:nodetypes="csssccsscsssc" />
    <path
       style="fill:#000000;fill-opacity:1;stroke:#000000;stroke-width:0.231825;stroke-linecap:butt;stroke-linejoin:miter;stroke-miterlimit:4;stroke-dasharray:none;stroke-opacity:1"
       d="m 7.7622549,6.2910315 c -0.22688,-0.0635 -0.79258,0.0178 -0.79891,0.0865 -0.0214,0.23183 1.11187,-0.10612 1.00971,0.63302 0.14635,-0.0376 0.52275,-0.13503 0.42467,-0.3201 -0.0379,-0.0715 -0.40859,-0.33588 -0.63547,-0.39939 z"
       id="path3813-1-6-3"
       inkscape:connector-curvature="0"
       sodipodi:nodetypes="zscsz" />
  </g>
</svg>
