<?xml version="1.0" encoding="UTF-8" standalone="no"?>
<!-- Created with Inkscape (http://www.inkscape.org/) -->

<svg
   width="210mm"
   height="297mm"
   viewBox="0 0 210 297"
   version="1.1"
   id="svg9347"
   inkscape:version="1.1.2 (1:1.1+202202050950+0a00cf5339)"
   sodipodi:docname="TagCreativeCommons.svg"
   xmlns:inkscape="http://www.inkscape.org/namespaces/inkscape"
   xmlns:sodipodi="http://sodipodi.sourceforge.net/DTD/sodipodi-0.dtd"
   xmlns="http://www.w3.org/2000/svg"
   xmlns:svg="http://www.w3.org/2000/svg">
  <sodipodi:namedview
     id="namedview9349"
     pagecolor="#ffffff"
     bordercolor="#666666"
     borderopacity="1.0"
     inkscape:pageshadow="2"
     inkscape:pageopacity="0.0"
     inkscape:pagecheckerboard="0"
     inkscape:document-units="mm"
     showgrid="false"
     inkscape:zoom="4.5304435"
     inkscape:cx="59.48645"
     inkscape:cy="63.901029"
     inkscape:window-width="1974"
     inkscape:window-height="1088"
     inkscape:window-x="74"
     inkscape:window-y="27"
     inkscape:window-maximized="1"
     inkscape:current-layer="layer1" />
  <defs
     id="defs9344" />
  <g
     inkscape:label="Layer 1"
     inkscape:groupmode="layer"
     id="layer1">
    <path
       style="fill:#000000;stroke-width:0.0137539"
       d="m 3.2702413,7.028004 c -0.3371,-0.0323 -0.56867,-0.0791 -0.84557,-0.17107 -0.49535,-0.16442 -0.95832,-0.44673 -1.33963,-0.81686 -0.21692,-0.21057 -0.35814,-0.37902 -0.51307,-0.61206 -0.64726,-0.97353 -0.75185,-2.21325 -0.27968,-3.31489 0.20903,-0.48772 0.58211,-0.98213 1.01114,-1.33998001 0.47158,-0.39333 1.035,-0.64586 1.66422,-0.74589 0.22771,-0.0362 0.87581,-0.0364 1.09344,-2.3e-4 0.80442,0.1334 1.4708,0.48113 2.01812,1.05306001 1.24649,1.48142 1.20432,3.61082 -0.0236,4.8782 -0.4477,0.44946 -0.95181,0.75267 -1.55234,0.93371 -0.36916,0.11129 -0.89078,0.16884 -1.23303,0.13605 z m 0.52463,-0.652 c 0.80981,-0.0829 1.57726,-0.51463 2.05757,-1.15742 0.37101,-0.49651 0.54522,-1.04054 0.54522,-1.70256 0,-0.66294 -0.1824,-1.22683 -0.5602,-1.73184 -0.44594,-0.5961 -1.10751,-1.00011001 -1.83826,-1.12259001 -0.1824,-0.0306 -0.57807,-0.0415 -0.77123,-0.0212 -0.7073,0.0741 -1.33822,0.38643001 -1.79038,0.88644001 -0.44098,0.48765 -0.6906,1.00409 -0.77534,1.60412 -0.0288,0.20408 -0.0288,0.57706 1.1e-4,0.76702 0.14698,0.96646 0.76166,1.7926 1.65047,2.21826 0.45446,0.21765 0.98519,0.31069 1.48203,0.25982 z m -1.47365,-1.79323 c -0.22446,-0.0475 -0.35533,-0.1157 -0.50314,-0.26209 -0.12734,-0.12613 -0.17974,-0.21102 -0.23789,-0.38545 -0.10668,-0.32 -0.079,-0.71658 0.0699,-1.00092 0.082,-0.15656 0.23778,-0.31243 0.39212,-0.39227 0.16995,-0.0879 0.29137,-0.11571 0.50596,-0.11582 0.25534,-1.2e-4 0.42353,0.0416 0.60043,0.14898 0.14726,0.0894 0.34946,0.32198 0.31064,0.35734 -0.009,0.009 -0.11403,0.0658 -0.23255,0.1273 l -0.21549,0.11176 -0.0348,-0.0593 c -0.0802,-0.13678 -0.21989,-0.22112 -0.36638,-0.22114 -0.29878,-4e-5 -0.45783,0.21152 -0.45942,0.61112 -10e-4,0.2423 0.0517,0.40622 0.16641,0.51768 0.0884,0.0859 0.1871,0.11905 0.33427,0.11222 0.17947,-0.008 0.28786,-0.0777 0.37339,-0.23891 l 0.0309,-0.0583 0.21832,0.10932 0.21832,0.10932 -0.0279,0.0441 c -0.14078,0.22239 -0.35137,0.38524 -0.59985,0.46385 -0.12264,0.0388 -0.40765,0.0499 -0.54328,0.0212 z m 2.0046,-0.007 c -0.29594,-0.0645 -0.53165,-0.24493 -0.65718,-0.50307 -0.1297,-0.26674 -0.15599,-0.64557 -0.0654,-0.94214 0.1028,-0.33642 0.35962,-0.58635 0.69457,-0.67595 0.15345,-0.041 0.41788,-0.0408 0.58939,5.4e-4 0.25353,0.0611 0.46994,0.21495 0.5975,0.4247 l 0.0265,0.0435 -0.0855,0.0467 c -0.047,0.0257 -0.15173,0.0818 -0.23268,0.12459 l -0.14716,0.0779 -0.0163,-0.0313 c -0.0624,-0.12025 -0.18897,-0.21973 -0.31206,-0.24528 -0.0828,-0.0172 -0.20884,-8.2e-4 -0.2813,0.0367 -0.19088,0.0987 -0.29257,0.39696 -0.24634,0.72252 0.0436,0.30733 0.19324,0.46635 0.44885,0.4771 0.19142,0.008 0.33638,-0.0741 0.4171,-0.23635 l 0.032,-0.0643 0.2185,0.11147 0.21849,0.11148 -0.0229,0.0365 c -0.14002,0.22365 -0.33654,0.37871 -0.58813,0.46402 -0.14975,0.0508 -0.40792,0.0598 -0.58801,0.0206 z"
       id="path519415"
       sodipodi:nodetypes="csssssscccsccsssssssscsssssssscssscsssssscccssscssscscsscsscssscccsscc" />
  </g>
</svg>
