<?xml version="1.0" standalone="no"?>
<!DOCTYPE svg PUBLIC "-//W3C//DTD SVG 20010904//EN"
 "http://www.w3.org/TR/2001/REC-SVG-20010904/DTD/svg10.dtd">
<svg version="1.0" xmlns="http://www.w3.org/2000/svg"
 width="211.000000pt" height="211.000000pt" viewBox="0 0 211.000000 211.000000"
 preserveAspectRatio="xMidYMid meet">
<metadata>
Created by potrace 1.14, written by Peter Selinger 2001-2017
</metadata>
<g transform="translate(0.000000,211.000000) scale(0.100000,-0.100000)"
fill="#000000" stroke="none">
<path d="M1553 1820 c-12 -5 -25 -19 -29 -32 -7 -21 -9 -27 -13 -44 0 -3 -13
3 -28 14 -30 20 -98 42 -130 42 -33 0 -45 -25 -45 -90 0 -34 -3 -59 -6 -58
-83 44 -128 59 -188 62 -90 4 -144 -7 -166 -34 -20 -24 -25 -121 -9 -175 l8
-30 -52 -1 c-62 -2 -176 -57 -338 -164 -163 -108 -226 -191 -181 -241 24 -26
6 -28 -76 -8 -41 10 -91 21 -110 24 -19 3 -40 7 -45 9 -24 8 -90 -73 -126
-153 -20 -45 -20 -45 0 -65 11 -11 71 -45 132 -75 121 -61 112 -51 232 -235
85 -131 168 -217 242 -252 94 -44 155 -25 286 88 l81 70 48 -21 c61 -26 90
-26 139 -1 44 22 51 21 145 -14 148 -56 269 -77 330 -56 91 30 216 242 216
365 0 20 8 39 23 51 77 68 167 207 167 257 0 30 -21 40 -72 33 -19 -2 -41 0
-49 5 -8 5 -9 9 -2 9 14 0 89 78 113 118 66 108 79 307 25 370 l-24 27 -40
-40 -41 -39 0 27 c0 16 -7 42 -16 58 -20 39 -83 109 -98 109 -6 0 -28 -18 -49
-40 -36 -39 -77 -53 -77 -27 0 26 -60 107 -101 137 -46 33 -45 33 -76 20z"/>
</g>
</svg>
