<?xml version="1.0" encoding="UTF-8" standalone="no"?>
<!-- Created with Inkscape (http://www.inkscape.org/) -->

<svg
   width="14.471336mm"
   height="10.551806mm"
   viewBox="0 0 14.471336 10.551806"
   version="1.1"
   id="svg5497"
   inkscape:version="1.2.1 (9c6d41e, 2022-07-14)"
   sodipodi:docname="opendrop_logo.svg"
   xmlns:inkscape="http://www.inkscape.org/namespaces/inkscape"
   xmlns:sodipodi="http://sodipodi.sourceforge.net/DTD/sodipodi-0.dtd"
   xmlns="http://www.w3.org/2000/svg"
   xmlns:svg="http://www.w3.org/2000/svg">
  <sodipodi:namedview
     id="namedview5499"
     pagecolor="#ffffff"
     bordercolor="#000000"
     borderopacity="0.25"
     inkscape:showpageshadow="2"
     inkscape:pageopacity="0"
     inkscape:pagecheckerboard="true"
     inkscape:deskcolor="#d1d1d1"
     inkscape:document-units="mm"
     showgrid="false"
     inkscape:zoom="5.0519257"
     inkscape:cx="51.76244"
     inkscape:cy="24.842012"
     inkscape:window-width="1497"
     inkscape:window-height="733"
     inkscape:window-x="0"
     inkscape:window-y="38"
     inkscape:window-maximized="0"
     inkscape:current-layer="layer1" />
  <defs
     id="defs5494" />
  <g
     inkscape:label="Layer 1"
     inkscape:groupmode="layer"
     id="layer1"
     transform="translate(-75.823654,-113.02071)">
    <g
       id="g5469"
       transform="translate(19.731593,57.120901)">
      <path
         style="fill:#ffffff;fill-opacity:1;stroke:#000000;stroke-width:0.231825;stroke-linecap:butt;stroke-linejoin:miter;stroke-miterlimit:4;stroke-dasharray:none;stroke-opacity:1"
         d="m 62.877175,58.653317 c -0.39637,-0.580407 -0.330052,-1.510057 -0.230744,-1.661938 0.09931,-0.151882 0.922973,-0.306685 1.600601,-0.113912 0.677628,0.192773 1.139113,0.718519 1.139113,0.718519 0,0 -0.385546,0.277477 -0.496537,0.668865 -0.110989,0.391388 0.0079,0.973458 0.0079,0.973458 -0.686446,0.193904 -1.690431,-0.148073 -2.020319,-0.584992 z"
         id="path2996-8-3-0"
         inkscape:connector-curvature="0"
         sodipodi:nodetypes="csscscc" />
      <path
         style="fill:#ffffff;fill-opacity:1;stroke:#000000;stroke-width:0.231825;stroke-linecap:butt;stroke-linejoin:miter;stroke-miterlimit:4;stroke-dasharray:none;stroke-opacity:1"
         d="m 65.40075,57.572619 c -0.338813,-0.426437 -0.240693,-1.185507 -0.175248,-1.285155 0.08786,-0.133779 0.419127,-0.02974 0.741884,0.07594 0.330051,0.10807 0.576013,0.38276 0.633815,0.549112 -0.207866,0.17237 -0.445245,0.31332 -0.578318,0.54327 -0.276558,-0.06369 -0.391103,-0.03005 -0.622133,0.116833 z"
         id="path3768-0-3-0"
         inkscape:connector-curvature="0"
         sodipodi:nodetypes="cssccc" />
      <path
         style="fill:#ffffff;fill-opacity:1;stroke:#000000;stroke-width:0.231825;stroke-linecap:butt;stroke-linejoin:miter;stroke-miterlimit:4;stroke-dasharray:none;stroke-opacity:1"
         d="m 66.632825,56.883646 c 0.320128,-0.211252 0.643508,-0.27539 0.950048,-0.31393 -0.136312,-0.251968 -0.5122,-0.495677 -0.710471,-0.549374 -0.331221,0.09952 -0.3222,0.5209 -0.239577,0.863304 z"
         id="path3770-6-9-5"
         inkscape:connector-curvature="0"
         sodipodi:nodetypes="cccc" />
      <path
         style="fill:#ffffff;fill-opacity:1;stroke:#000000;stroke-width:0.231825;stroke-linecap:butt;stroke-linejoin:miter;stroke-miterlimit:4;stroke-dasharray:none;stroke-opacity:1"
         d="m 66.055217,57.464757 c -0.11341,0.207463 -0.1516,0.426149 -0.03363,0.716513 0.209701,0.344798 1.102333,0.910021 1.385757,0.816703 0.210848,-0.176516 0.560796,-0.917134 0.560796,-1.285155 0,-0.368022 -0.259953,-1.139115 -0.435202,-1.133272 -0.175247,0.0058 -1.02874,0.213471 -1.477721,0.885211 z"
         id="path3772-9-7-2"
         inkscape:connector-curvature="0"
         sodipodi:nodetypes="cccssc" />
      <path
         style="fill:#ffffff;fill-opacity:1;stroke:#000000;stroke-width:0.231825;stroke-linecap:butt;stroke-linejoin:miter;stroke-miterlimit:4;stroke-dasharray:none;stroke-opacity:1"
         d="m 67.950499,57.267796 c 0.296686,0.07975 0.760041,-0.400673 0.809608,-0.557637 0.04957,-0.156965 0.780692,0.665033 0.747648,1.020269 -0.03305,0.355235 -0.194142,0.652641 -0.578293,0.731124 -0.372678,0.07614 -1.036792,0.07848 -1.375503,0.363496 0.380821,-0.582288 0.446832,-1.062838 0.39654,-1.557252 z"
         id="path3774-3-5-9"
         inkscape:connector-curvature="0"
         sodipodi:nodetypes="cssscc" />
      <path
         style="fill:#ffffff;fill-opacity:1;stroke:#000000;stroke-width:0.231825;stroke-linecap:butt;stroke-linejoin:miter;stroke-miterlimit:4;stroke-dasharray:none;stroke-opacity:1"
         d="m 67.185364,59.284212 c 0.233664,-0.350497 0.776928,-0.736608 1.26763,-0.741885 0.54327,-0.0058 1.109904,-0.274556 1.647334,-0.975549 0.190109,-0.247969 0.595845,0.946341 0.134357,2.114663 -0.21721,0.549901 -0.671787,1.016441 -1.098223,1.261789 -0.496537,0 -0.998916,-0.274556 -1.273473,-0.864559 -0.274554,-0.590003 -0.677625,-0.794459 -0.677625,-0.794459 z"
         id="path3776-1-3-4"
         inkscape:connector-curvature="0"
         sodipodi:nodetypes="cssscsc" />
      <path
         style="fill:#ffffff;fill-opacity:1;stroke:#000000;stroke-width:0.231825;stroke-linecap:butt;stroke-linejoin:miter;stroke-miterlimit:4;stroke-dasharray:none;stroke-opacity:1"
         d="m 67.156155,59.290053 c -0.922976,-0.303764 -1.77001,-0.151882 -2.202289,-0.06426 -0.107782,-0.294226 -0.126363,-1.088692 0.146041,-1.361095 0.432279,-0.432279 0.922976,-0.572479 0.887924,-0.321289 -0.03505,0.251189 -0.107572,0.599062 0.297925,0.940499 0.337156,0.283895 0.689309,0.414755 1.104064,0.554954 -0.146041,0.110991 -0.233665,0.251189 -0.233665,0.251189 z"
         id="path3778-4-5-5"
         inkscape:connector-curvature="0"
         sodipodi:nodetypes="ccssscc" />
      <path
         style="fill:#5adf3f;fill-opacity:1;stroke:#000000;stroke-width:0.347737;stroke-linecap:butt;stroke-linejoin:miter;stroke-miterlimit:4;stroke-dasharray:none;stroke-opacity:1"
         d="m 61.372958,58.793516 c 0.549111,-0.292081 1.08671,-0.548506 1.694068,0.0701 0.630894,0.642577 1.880744,0.438163 2.336644,0.362179 0.560795,-0.09347 1.868091,-0.133289 2.196446,0.514062 0.508355,1.002213 1.751655,1.620303 2.300766,1.410005 0.549112,-0.210297 -0.513617,1.523214 -1.167876,1.87371 0.151238,0.950544 -0.768627,2.565992 -1.46168,2.695849 -0.619211,0.09346 -1.774189,-0.301516 -2.370034,-0.558547 -0.595845,-0.257032 -0.642821,0.05582 -1.028367,0.149289 -0.385546,0.09347 -0.77085,-0.277805 -0.981149,-0.301171 -0.210296,-0.02337 -1.204145,1.372953 -2.044564,1.261788 -1.419481,-0.187762 -2.418427,-2.874074 -3.014271,-3.177838 -0.595845,-0.303763 -1.221414,-0.506043 -1.540425,-0.822664 0.151882,-0.43228 0.466884,-0.93241 0.735699,-1.152043 0.607528,0.01168 1.744709,0.556786 1.931642,0.241339 0.186931,-0.315448 -0.240866,-0.178104 -0.227308,-0.533176 0.02537,-0.664426 2.640409,-2.032882 2.640409,-2.032882 z"
         id="path3780-1-9-0"
         inkscape:connector-curvature="0"
         sodipodi:nodetypes="cssssccsssssccssc" />
      <path
         style="fill:none;stroke:#000000;stroke-width:0.347737;stroke-linecap:butt;stroke-linejoin:miter;stroke-miterlimit:4;stroke-dasharray:none;stroke-opacity:1"
         d="m 60.201241,59.46547 c 1.163272,-0.58126 2.545091,-0.111545 2.906969,0.874351 0.323061,0.880139 0.439023,1.500598 0.439023,1.500598"
         id="path3782-0-9-8"
         inkscape:connector-curvature="0"
         sodipodi:nodetypes="csc" />
      <path
         style="fill:#000000;fill-opacity:1;stroke:#000000;stroke-width:0.347737;stroke-linecap:butt;stroke-linejoin:miter;stroke-miterlimit:4;stroke-dasharray:none;stroke-opacity:1"
         d="m 69.133453,61.077667 c -1.168748,-0.443447 -1.799128,-0.461458 -2.377418,-0.131007 -0.578291,0.330452 -1.798955,1.127029 -1.798955,1.127029 0,0 2.31316,-1.635735 2.511432,-2.032277 0.198271,-0.396542 0.928097,0.79526 0.928097,0.79526 z"
         id="path3784-4-8-8"
         inkscape:connector-curvature="0"
         sodipodi:nodetypes="cscscc" />
      <path
         style="fill:#000000;fill-opacity:1;stroke:#000000;stroke-width:0.347737;stroke-linecap:butt;stroke-linejoin:miter;stroke-miterlimit:4;stroke-dasharray:none;stroke-opacity:1"
         d="m 57.961456,63.017002 c 0.736044,-0.268714 0.993074,-0.531587 0.993074,-0.531587 0,0 0.467329,0.432279 1.203372,0.479012 0.736043,0.04673 1.117964,0.01793 0.82951,0.198615 -0.43812,0.105149 -2.268033,-0.01898 -2.622884,0.09931 -0.344656,-0.128515 -0.403072,-0.245347 -0.403072,-0.245347 z"
         id="path3805-0-1-2"
         inkscape:connector-curvature="0"
         sodipodi:nodetypes="ccsccc" />
      <path
         style="fill:#c1dcfc;fill-opacity:1;stroke:#000000;stroke-width:0.231825;stroke-linecap:butt;stroke-linejoin:miter;stroke-miterlimit:4;stroke-dasharray:none;stroke-opacity:1"
         d="m 64.687291,63.025913 c -0.454371,0.380019 -2.189241,0.429587 -2.428817,0.107397 -0.239577,-0.32219 0.0436,-0.821116 0.346972,-1.024399 0.309763,-0.207566 0.991354,-0.454372 1.561383,-0.156965 0.570029,0.297406 0.974833,0.693948 0.520462,1.073967 z"
         id="path3807-8-2-4"
         inkscape:connector-curvature="0"
         sodipodi:nodetypes="zsssz" />
      <path
         style="fill:#000000;fill-opacity:1;stroke:#000000;stroke-width:0.231825;stroke-linecap:butt;stroke-linejoin:miter;stroke-miterlimit:4;stroke-dasharray:none;stroke-opacity:1"
         d="m 64.887983,62.891728 c 0.446107,-0.247839 1.02198,-1.113269 1.030241,-1.303279 0.0083,-0.190009 -0.305667,0.148704 -0.487415,0.02478 -0.181751,-0.123919 -0.132183,-0.57829 -0.338714,-0.693948 -0.206533,-0.115657 -1.111143,0.553506 -1.292891,0.875696 -0.289147,-0.04131 -0.88809,0.04544 -1.185496,0.305668 -0.396543,-0.13218 -0.941787,-0.437848 -0.999615,-0.338713 -0.05783,0.09914 -0.140035,1.064277 0.223056,1.263977 0.165224,0.09087 0.190007,0.095 0.346973,0.08261 -0.136311,-0.346975 0.13218,-0.797214 0.31806,-0.933525 0.227384,-0.16675 0.755907,-0.421326 1.045051,-0.404803 0.289147,0.01652 1.049858,0.295158 1.223344,0.526474 0.173489,0.231316 0.117406,0.595056 0.117406,0.595056 z"
         id="path3809-8-2-0"
         inkscape:connector-curvature="0"
         sodipodi:nodetypes="csssccsscsssc" />
      <path
         style="fill:#000000;fill-opacity:1;stroke:#000000;stroke-width:0.231825;stroke-linecap:butt;stroke-linejoin:miter;stroke-miterlimit:4;stroke-dasharray:none;stroke-opacity:1"
         d="m 63.854317,62.190841 c -0.226881,-0.06351 -0.79258,0.01779 -0.798911,0.08647 -0.02137,0.231826 1.111876,-0.106122 1.00971,0.633016 0.146355,-0.03757 0.522754,-0.135028 0.424675,-0.3201 -0.0379,-0.07153 -0.408595,-0.335876 -0.635474,-0.39939 z"
         id="path3813-1-6-3"
         inkscape:connector-curvature="0"
         sodipodi:nodetypes="zscsz" />
    </g>
  </g>
</svg>
